# xmcd
#
# Track frame offsets:
#	150
#	12340
#	27680
#	40230
#	55227
#	74109
#	91784
#	106993
#	122566
#	139580
#	157578
#	168578
#	184404
#	199661
#
# Disc length: 2904 seconds
#
# Revision: 0
# Processed by: cddbd v1.5.2PL0 Copyright (c) Steve Scherf et al.
# Submitted via: audiograbber 1.83.01
#
DISCID=bf0b560e
DTITLE=01 - Mr Music Country 2013-01
DYEAR=2013
DGENRE=Country
TTITLE0=Jace Everett - Bad things
TTITLE1=Jill Johnson - A woman can change her mind
TTITLE2=Eric Church - Love your love the most
TTITLE3=Susan Ashton - Closer
TTITLE4=Brad Paisley and Alabama - Old Alabama
TTITLE5=Doug Stone - Make up in love
TTITLE6=Dean Miller - Nowhere, USA
TTITLE7=Sara Evans - As if
TTITLE8=Travis Tritt - If I lost you
TTITLE9=Highway 101 - This side of goodbye
TTITLE10=Shennandoah - Darned if I do (Danged if I don't)
TTITLE11=Linda Davis - Three way tie
TTITLE12=Troy Olsen - Good hands
TTITLE13=Lonestar - You're like comin' home
EXTD=
EXTT0=
EXTT1=
EXTT2=
EXTT3=
EXTT4=
EXTT5=
EXTT6=
EXTT7=
EXTT8=
EXTT9=
EXTT10=
EXTT11=
EXTT12=
EXTT13=
PLAYORDER=
